# xmcd
#
# Track frame offsets:
#	150
#	13725
#	30000
#	46952
#	65102
#	81980
#	99530
#	114755
#	129832
#	152557
#	167707
#	183235
#	203787
#	218787
#	232887
#
# Disc length: 3376 seconds
#
# Revision: 0
# Processed by: cddbd v1.5PL3 Copyright (c) Steve Scherf et al.
# Submitted via: EZCDDA 4.3.3.2
#
DISCID=b50d2e0f
DTITLE=Exterminador - 15 Kilates Musicales
DYEAR=1900
DGENRE=
TTITLE0=Despedida Con Mariachi
TTITLE1=La Tumba Vacia
TTITLE2=El Tiburon
TTITLE3=La Morena
TTITLE4=La Dos Hectareas
TTITLE5=El Jardinero
TTITLE6=Patron de Patrones
TTITLE7=El Meneito
TTITLE8=Entre Perico y Perico
TTITLE9=En Primera Plana
TTITLE10=Vida Prestada
TTITLE11=Las Monjitas
TTITLE12=El Lechero
TTITLE13=El Toro Grande
TTITLE14=Contrabando en los Huevos
EXTD=
EXTT0=
EXTT1=
EXTT2=
EXTT3=
EXTT4=
EXTT5=
EXTT6=
EXTT7=
EXTT8=
EXTT9=
EXTT10=
EXTT11=
EXTT12=
EXTT13=
EXTT14=
PLAYORDER=
